<svg width="100%" height="100%" viewBox="0 0 44 57" version="1.1" xmlns="http://www.w3.org/2000/svg" xml:space="preserve" style="fill-rule:evenodd;clip-rule:evenodd;stroke-linejoin:round;stroke-miterlimit:1.41421;"><g><path d="M43.77,21.874c0,-1.901 -1.437,-3.463 -3.186,-3.463c-1.749,0 -3.186,1.562 -3.186,3.463l0,14.428c0,1.901 1.437,3.463 3.186,3.463c1.749,0 3.186,-1.562 3.186,-3.463l0,-14.428Zm-37.168,0c0,-1.901 -1.437,-3.463 -3.186,-3.463c-1.749,0 -3.186,1.562 -3.186,3.463l0,14.428c0,1.901 1.437,3.463 3.186,3.463c1.749,0 3.186,-1.562 3.186,-3.463l0,-14.428Zm22.363,-16.5l2.249,-4.413c0.125,-0.238 0.047,-0.544 -0.172,-0.662c-0.062,-0.034 -0.14,-0.068 -0.218,-0.068c-0.157,0 -0.313,0.085 -0.391,0.254l-2.28,4.465c-1.858,-0.9 -3.951,-1.409 -6.153,-1.409c-2.202,0 -4.295,0.509 -6.153,1.409l-2.264,-4.465c-0.125,-0.237 -0.391,-0.322 -0.61,-0.186c-0.218,0.135 -0.296,0.424 -0.171,0.662l2.249,4.413c-4.342,2.445 -7.262,7.079 -7.262,12.409l28.422,0c0,-5.33 -2.92,-9.964 -7.246,-12.409Zm-13.524,6.756c-0.656,0 -1.187,-0.577 -1.187,-1.29c0,-0.713 0.531,-1.29 1.187,-1.29c0.656,0 1.187,0.577 1.187,1.29c0,0.713 -0.531,1.29 -1.187,1.29Zm13.118,0c-0.656,0 -1.187,-0.577 -1.187,-1.29c0,-0.713 0.531,-1.29 1.187,-1.29c0.656,0 1.187,0.577 1.187,1.29c0,0.713 -0.531,1.29 -1.187,1.29Zm-20.77,6.875l0,22.39c0,2.071 1.53,3.734 3.435,3.734l2.28,0l0,7.639c0,1.901 1.437,3.463 3.186,3.463c1.749,0 3.186,-1.562 3.186,-3.463l0,-7.639l4.248,0l0,7.639c0,1.901 1.437,3.463 3.186,3.463c1.749,0 3.186,-1.562 3.186,-3.463l0,-7.639l2.28,0c1.905,0 3.435,-1.663 3.435,-3.734l0,-22.39l-28.422,0Z" style="fill:currentColor;fill-rule:nonzero;"/></g></svg>
