<svg width="100%" height="100%" viewBox="0 0 46 56" version="1.1" xmlns="http://www.w3.org/2000/svg" xml:space="preserve" style="fill-rule:evenodd;clip-rule:evenodd;stroke-linejoin:round;stroke-miterlimit:1.41421;"><g><path id="path188" d="M38.282,29.752c-0.064,-7.086 5.788,-10.489 6.052,-10.654c-3.292,-4.818 -8.417,-5.478 -10.245,-5.556c-4.359,-0.441 -8.509,2.566 -10.719,2.566c-2.209,0 -5.625,-2.502 -9.239,-2.431c-4.758,0.07 -9.138,2.763 -11.587,7.019c-4.937,8.566 -1.26,21.261 3.547,28.213c2.354,3.399 5.156,7.228 8.841,7.087c3.55,-0.141 4.891,-2.294 9.176,-2.294c4.285,0 5.492,2.294 9.243,2.227c3.815,-0.074 6.236,-3.473 8.573,-6.882c2.696,-3.946 3.811,-7.764 3.875,-7.966c-0.085,-0.035 -7.44,-2.855 -7.517,-11.329" style="fill:currentColor;fill-rule:nonzero;"/><path id="path190" d="M31.234,8.943c1.955,-2.368 3.275,-5.661 2.911,-8.943c-2.816,0.113 -6.226,1.878 -8.248,4.246c-1.81,2.093 -3.399,5.445 -2.968,8.661c3.141,0.243 6.349,-1.599 8.305,-3.964" style="fill:currentColor;fill-rule:nonzero;"/></g></svg>
