<svg width="100%" height="100%" viewBox="0 0 78 56" version="1.1" xmlns="http://www.w3.org/2000/svg" xml:space="preserve" style="fill-rule:evenodd;clip-rule:evenodd;stroke-linejoin:round;stroke-miterlimit:1.41421;"><g id="icon"><g id="browser"><path d="M73.665,0.001l0.101,0.004l0.1,0.006l0.099,0.009l0.098,0.012l0.098,0.013l0.097,0.016l0.097,0.019l0.095,0.021l0.095,0.023l0.093,0.025l0.093,0.028l0.092,0.029l0.09,0.032l0.09,0.035l0.089,0.036l0.087,0.038l0.086,0.041l0.086,0.042l0.084,0.044l0.083,0.047l0.081,0.048l0.081,0.05l0.079,0.052l0.077,0.054l0.077,0.056l0.075,0.057l0.073,0.059l0.072,0.061l0.07,0.063l0.069,0.064l0.068,0.066l0.066,0.067l0.064,0.069l0.063,0.071l0.06,0.072l0.06,0.073l0.057,0.075l0.056,0.076l0.054,0.078l0.052,0.079l0.05,0.08l0.048,0.082l0.046,0.083l0.045,0.084l0.042,0.085l0.041,0.087l0.038,0.087l0.036,0.089l0.034,0.089l0.032,0.091l0.03,0.092l0.028,0.093l0.025,0.093l0.023,0.095l0.021,0.095l0.018,0.096l0.016,0.097l0.014,0.098l0.011,0.099l0.009,0.099l0.007,0.1l0.003,0.101l0.002,0.101l0,41.235l-0.002,0.102l-0.003,0.1l-0.007,0.1l-0.009,0.1l-0.011,0.098l-0.014,0.098l-0.016,0.097l-0.018,0.096l-0.021,0.096l-0.023,0.094l-0.025,0.094l-0.028,0.093l-0.03,0.091l-0.032,0.091l-0.034,0.09l-0.036,0.088l-0.038,0.088l-0.041,0.086l-0.042,0.086l-0.045,0.084l-0.046,0.082l-0.048,0.082l-0.05,0.08l-0.052,0.079l-0.054,0.078l-0.056,0.076l-0.057,0.075l-0.06,0.074l-0.06,0.072l-0.063,0.07l-0.064,0.069l-0.066,0.068l-0.068,0.066l-0.069,0.064l-0.07,0.062l-0.072,0.061l-0.073,0.059l-0.075,0.058l-0.077,0.056l-0.077,0.053l-0.079,0.052l-0.081,0.051l-0.081,0.048l-0.083,0.046l-0.084,0.045l-0.086,0.042l-0.086,0.04l-0.087,0.039l-0.089,0.036l-0.09,0.034l-0.09,0.032l-0.092,0.03l-0.093,0.027l-0.093,0.026l-0.095,0.023l-0.095,0.021l-0.097,0.018l-0.097,0.016l-0.098,0.014l-0.098,0.011l-0.099,0.009l-0.1,0.006l-0.101,0.004l-0.101,0.002l-68.849,0l-0.101,-0.002l-0.1,-0.004l-0.1,-0.006l-0.1,-0.009l-0.098,-0.011l-0.098,-0.014l-0.097,-0.016l-0.097,-0.018l-0.095,-0.021l-0.094,-0.023l-0.094,-0.026l-0.093,-0.027l-0.091,-0.03l-0.091,-0.032l-0.09,-0.034l-0.089,-0.036l-0.087,-0.039l-0.086,-0.04l-0.086,-0.042l-0.084,-0.045l-0.083,-0.046l-0.081,-0.048l-0.081,-0.051l-0.079,-0.052l-0.077,-0.053l-0.077,-0.056l-0.074,-0.058l-0.074,-0.059l-0.072,-0.061l-0.07,-0.062l-0.069,-0.064l-0.068,-0.066l-0.066,-0.068l-0.064,-0.069l-0.063,-0.07l-0.06,-0.072l-0.06,-0.074l-0.057,-0.075l-0.056,-0.076l-0.054,-0.078l-0.052,-0.079l-0.05,-0.08l-0.048,-0.082l-0.046,-0.082l-0.045,-0.084l-0.042,-0.086l-0.041,-0.086l-0.038,-0.088l-0.036,-0.088l-0.034,-0.09l-0.032,-0.091l-0.03,-0.091l-0.028,-0.093l-0.025,-0.094l-0.023,-0.094l-0.021,-0.096l-0.018,-0.096l-0.016,-0.097l-0.014,-0.098l-0.011,-0.098l-0.009,-0.1l-0.007,-0.1l-0.003,-0.1l-0.002,-0.102l0,-41.235l0.002,-0.101l0.003,-0.101l0.007,-0.1l0.009,-0.099l0.011,-0.099l0.014,-0.098l0.016,-0.097l0.018,-0.096l0.021,-0.095l0.023,-0.095l0.025,-0.093l0.028,-0.093l0.03,-0.092l0.032,-0.091l0.034,-0.089l0.036,-0.089l0.038,-0.087l0.041,-0.087l0.042,-0.085l0.045,-0.084l0.046,-0.083l0.048,-0.082l0.05,-0.08l0.052,-0.079l0.054,-0.078l0.056,-0.076l0.057,-0.075l0.06,-0.073l0.06,-0.072l0.063,-0.071l0.064,-0.069l0.066,-0.067l0.068,-0.066l0.069,-0.064l0.07,-0.063l0.072,-0.061l0.074,-0.059l0.074,-0.057l0.077,-0.056l0.077,-0.054l0.079,-0.052l0.081,-0.05l0.081,-0.048l0.083,-0.047l0.084,-0.044l0.086,-0.042l0.086,-0.041l0.087,-0.038l0.089,-0.036l0.09,-0.035l0.091,-0.032l0.091,-0.029l0.093,-0.028l0.094,-0.025l0.094,-0.023l0.095,-0.021l0.097,-0.019l0.097,-0.016l0.098,-0.013l0.098,-0.012l0.1,-0.009l0.1,-0.006l0.1,-0.004l0.101,-0.001l68.849,0l0.101,0.001Zm-68.935,2.999l-0.044,0.001l-0.015,0l-0.027,0.002l-0.026,0.002l-0.025,0.003l-0.023,0.003l-0.022,0.004l-0.021,0.004l-0.019,0.004l-0.026,0.006l-0.024,0.007l-0.023,0.007l-0.015,0.005l-0.021,0.007l-0.02,0.008l-0.019,0.007l-0.024,0.011l-0.017,0.008l-0.022,0.011l-0.022,0.011l-0.02,0.011l-0.019,0.012l-0.012,0.008l-0.023,0.015l-0.022,0.015l-0.015,0.011l-0.02,0.015l-0.018,0.015l-0.014,0.011l-0.016,0.015l-0.02,0.019l-0.015,0.014l-0.015,0.015l-0.017,0.018l-0.016,0.018l-0.015,0.018l-0.011,0.014l-0.014,0.018l-0.016,0.021l-0.012,0.018l-0.013,0.02l-0.013,0.02l-0.01,0.017l-0.009,0.017l-0.012,0.023l-0.01,0.019l-0.009,0.02l-0.009,0.022l-0.008,0.019l-0.008,0.021l-0.007,0.019l-0.007,0.022l-0.007,0.023l-0.005,0.019l-0.006,0.022l-0.005,0.024l-0.004,0.022l-0.004,0.022l-0.003,0.023l-0.003,0.023l-0.002,0.025l-0.001,0.023l-0.001,0.025l-0.001,0.044l0,41.197l0.001,0.044l0.001,0.025l0.001,0.025l0.002,0.023l0.003,0.024l0.003,0.023l0.004,0.022l0.004,0.023l0.005,0.021l0.005,0.021l0.007,0.023l0.006,0.022l0.006,0.019l0.008,0.021l0.008,0.021l0.009,0.023l0.008,0.019l0.009,0.019l0.01,0.02l0.01,0.019l0.011,0.02l0.012,0.02l0.013,0.021l0.011,0.017l0.012,0.017l0.013,0.018l0.014,0.017l0.017,0.022l0.015,0.018l0.013,0.015l0.014,0.014l0.018,0.018l0.019,0.019l0.011,0.011l0.017,0.015l0.022,0.018l0.014,0.012l0.02,0.015l0.02,0.015l0.012,0.008l0.022,0.014l0.024,0.015l0.013,0.008l0.02,0.011l0.022,0.012l0.022,0.01l0.023,0.011l0.012,0.005l0.018,0.008l0.027,0.01l0.021,0.008l0.022,0.007l0.023,0.007l0.017,0.004l0.019,0.005l0.026,0.006l0.021,0.004l0.022,0.003l0.023,0.004l0.025,0.002l0.026,0.003l0.02,0.001l0.029,0.001l0.044,0.001l68.805,0l0.044,-0.001l0.029,-0.001l0.02,-0.001l0.026,-0.003l0.025,-0.002l0.023,-0.004l0.022,-0.003l0.021,-0.004l0.026,-0.006l0.019,-0.005l0.017,-0.004l0.023,-0.007l0.022,-0.007l0.021,-0.008l0.027,-0.01l0.018,-0.008l0.012,-0.005l0.023,-0.011l0.022,-0.011l0.022,-0.011l0.02,-0.011l0.013,-0.008l0.024,-0.015l0.022,-0.015l0.012,-0.007l0.02,-0.015l0.02,-0.015l0.014,-0.012l0.022,-0.018l0.017,-0.015l0.011,-0.011l0.019,-0.019l0.018,-0.018l0.014,-0.014l0.013,-0.015l0.015,-0.018l0.017,-0.022l0.014,-0.017l0.013,-0.018l0.012,-0.017l0.011,-0.017l0.013,-0.021l0.012,-0.02l0.011,-0.02l0.01,-0.019l0.01,-0.02l0.009,-0.019l0.008,-0.02l0.009,-0.022l0.008,-0.021l0.008,-0.021l0.006,-0.019l0.006,-0.022l0.007,-0.023l0.005,-0.021l0.005,-0.021l0.004,-0.023l0.004,-0.022l0.003,-0.023l0.003,-0.024l0.002,-0.023l0.001,-0.025l0.001,-0.024l0.001,-0.044l0,-41.198l-0.001,-0.044l-0.001,-0.025l-0.001,-0.023l-0.002,-0.025l-0.003,-0.023l-0.003,-0.023l-0.004,-0.022l-0.004,-0.022l-0.005,-0.024l-0.006,-0.022l-0.005,-0.019l-0.007,-0.023l-0.007,-0.022l-0.007,-0.019l-0.008,-0.021l-0.008,-0.019l-0.009,-0.022l-0.009,-0.02l-0.01,-0.019l-0.012,-0.023l-0.009,-0.017l-0.01,-0.017l-0.013,-0.02l-0.013,-0.02l-0.012,-0.018l-0.016,-0.021l-0.014,-0.018l-0.011,-0.014l-0.015,-0.018l-0.016,-0.018l-0.017,-0.018l-0.015,-0.015l-0.015,-0.014l-0.02,-0.019l-0.016,-0.015l-0.014,-0.011l-0.018,-0.015l-0.02,-0.015l-0.015,-0.011l-0.022,-0.015l-0.023,-0.015l-0.012,-0.008l-0.019,-0.012l-0.02,-0.011l-0.021,-0.011l-0.023,-0.011l-0.017,-0.008l-0.024,-0.011l-0.019,-0.007l-0.02,-0.008l-0.021,-0.007l-0.015,-0.005l-0.023,-0.007l-0.024,-0.007l-0.026,-0.006l-0.019,-0.004l-0.021,-0.004l-0.022,-0.004l-0.023,-0.003l-0.025,-0.003l-0.026,-0.002l-0.027,-0.002l-0.014,0l-0.045,-0.001l-68.819,0Z" style="fill:currentColor;"/><rect x="0.788" y="13.039" width="76.702" height="2.301" style="fill:currentColor;"/><circle cx="10.593" cy="7.67" r="2.301" style="fill:currentColor;"/><circle cx="17.496" cy="7.67" r="2.301" style="fill:currentColor;"/><circle cx="24.399" cy="7.67" r="2.301" style="fill:currentColor;"/></g><g id="globe"><circle cx="49.71" cy="37.592" r="18.408"/><path id="globe-af_2_" d="M49.7,19.176c-7.178,0 -13.856,4.317 -16.804,10.863c-2.985,6.631 -1.698,14.616 3.205,19.98c4.898,5.359 12.711,7.363 19.584,5.003c6.752,-2.317 11.672,-8.545 12.351,-15.653c1.02,-10.672 -7.606,-20.193 -18.336,-20.193Zm-6.664,7.989c0.507,-1.479 3.242,0.862 1.776,2.147c-0.351,0.308 -2.258,0.258 -1.853,-0.186c0.163,-0.177 0.411,-0.178 0.571,-0.401c0.418,-0.579 -0.234,-1.103 -0.494,-1.56Zm12.989,20.55c-0.049,0.586 -0.46,2.043 -1.26,2.043c-0.58,0 -0.574,-0.817 -0.515,-1.215c0.213,-1.422 0.818,-1.687 1.591,-2.753c0.534,0.452 0.233,1.33 0.184,1.925Zm1.822,-10.13c-0.698,0.745 -1.741,1.925 -2.884,1.921c-0.778,-0.004 -0.853,-2.406 -1.793,-2.852c-0.477,-0.227 -1.141,0.312 -0.758,0.779c0.42,0.508 0.415,1.195 0.951,1.634c0.925,0.76 1.757,1.633 2.969,0.701c-0.123,1.422 -1.199,2.226 -2.034,3.252c-0.469,0.577 -0.844,1.225 -0.693,1.996c0.127,0.649 0.594,1.528 0.071,2.121c-0.345,0.393 -1.123,0.613 -1.151,1.23c0.087,0.232 0.122,0.47 0.103,0.715c-0.164,0.342 -0.52,0.566 -0.703,0.918c-0.348,0.671 -1.073,1.975 -1.852,2.228c-0.382,0.124 -1.363,0.448 -1.662,0.071c-0.794,-0.998 -0.517,-3.323 -0.981,-4.491c-0.307,-0.771 0.27,-1.151 0.281,-1.87c0.008,-0.55 -0.37,-1.013 -0.627,-1.466c-0.332,-0.58 -0.262,-0.97 -0.238,-1.601c0.021,-0.598 -0.557,-0.301 -0.881,-0.49c-0.364,-0.212 -0.404,-0.686 -0.921,-0.363c-0.445,0.274 -1.816,0.504 -2.325,0.417c-0.738,-0.127 -1.635,-1.718 -1.822,-2.378c-0.174,-0.618 0.297,-1.211 0.124,-1.73c-0.183,-0.545 -0.024,-1.046 0.335,-1.474c0.549,-0.649 1.207,-1.74 1.913,-2.163c0.503,-0.3 1.158,-0.009 1.755,-0.171c0.534,-0.145 1.326,-0.336 1.89,-0.207c0.592,0.133 -0.074,0.719 0.317,0.935c0.456,0.251 0.785,0.475 1.215,0.749c0.442,0.28 0.606,-0.507 0.925,-0.585c0.387,-0.094 0.916,-0.15 1.309,-0.07c0.762,0.162 2.32,-0.364 1.555,-1.495c-0.268,-0.396 -0.992,-0.512 -1.399,-0.682c-0.504,-0.21 -0.202,-1.067 -0.881,-1.034c-0.507,0.126 0.188,0.655 0.016,0.951c-0.313,0.539 -0.905,-0.598 -0.986,-0.744c-0.096,-0.171 -1.204,-1.704 -1.555,-1.371c-0.12,0.113 1.865,2.373 0.357,1.932c-0.004,-0.596 -0.62,-0.657 -0.944,-1.053c-0.452,-0.552 -0.814,-0.305 -1.317,0.134c-0.493,0.431 -1.205,1.029 -1.799,1.313c-1.294,0.622 -1.092,-0.712 -1.055,-1.488c0.023,-0.519 0.791,-0.277 1.068,-0.398c0.841,-0.37 0.018,-0.763 -0.199,-1.118c0.247,-0.369 1.74,-0.809 2.162,-0.919c0.944,-0.251 1.738,-1.027 2.894,-0.453c0.151,0.072 1.601,-0.833 0.566,-1.093c-1.148,-0.683 -1.199,0.309 -2.069,0.576c-0.008,-0.96 -2.357,-1.046 -1.476,-2.333c0.721,-1.049 1.304,-1.196 3.341,-1.345c1.491,-0.099 2.211,-0.049 2.534,0.224c0.323,0.274 0.421,1.256 -0.355,1.355c0.145,1.283 1.489,0.099 2.001,-0.232c0.846,-0.542 2.635,-0.209 2.875,-0.403c0.24,-0.194 -0.161,-0.745 0.051,-1.094c0.2,-0.329 0.701,-0.162 0.768,0.174c0.913,0.146 1.344,-0.531 2.312,0.113c2.928,1.949 5.196,4.755 6.352,9.296c0.518,2.037 0.615,4.315 0.02,4.149c-0.399,-0.109 -0.206,-1 -0.472,-1.254c-0.689,0.162 -1.849,1.307 -2.15,1.941c-0.188,0.396 0.183,1.931 -0.639,1.931c-0.333,0 -0.497,-1.226 -0.546,-1.433c-0.141,-0.603 -0.251,-1.243 -0.515,-1.81c-0.301,-0.647 -0.574,-0.238 -1.048,-0.332c-0.611,-0.121 -0.469,-0.94 -1.331,-1.013c-0.795,-0.064 -1.072,0.566 -0.969,1.252Z" style="fill:#fff;fill-rule:nonzero;"/></g></g></svg>
