<?xml version="1.0" encoding="UTF-8" standalone="no"?><!DOCTYPE svg PUBLIC "-//W3C//DTD SVG 1.1//EN" "http://www.w3.org/Graphics/SVG/1.1/DTD/svg11.dtd"><svg width="100%" height="100%" viewBox="0 0 1290 720" version="1.1" xmlns="http://www.w3.org/2000/svg" xmlns:xlink="http://www.w3.org/1999/xlink" xml:space="preserve" xmlns:serif="http://www.serif.com/" style="fill-rule:evenodd;clip-rule:evenodd;stroke-linecap:round;stroke-linejoin:round;stroke-miterlimit:1.5;"><rect id="ralof-outline" x="0" y="0" width="1290" height="720" style="fill:#0d0d0d;"/><clipPath id="_clip1"><rect id="ralof-outline1" serif:id="ralof-outline" x="0" y="0" width="1290" height="720"/></clipPath><g clip-path="url(#_clip1)"><g id="outline"><g><path d="M1003.56,233.872l38.718,34.927l27.966,4.095l15.035,21.322l16.826,11.723l-21.9,25.57l-44.324,-0.496l-15.839,12.332l-16.482,-109.473Z" style="fill:#14cca8;fill-opacity:0.596078;stroke:#14cca8;stroke-width:6px;"/><path d="M680.318,335.33l18.081,-20.09l-12.81,-26.008l40.916,-75.688l27.991,-0.361l15.789,-16.671l11.767,-35.56l27.476,0.035l5.296,-14.258l-1.469,-18.785l26.307,6.27l39.252,2.7l32.184,20.891l15.652,182.051l-43.445,8.864l-24.852,-5.213l-46.634,3.822l-29.366,15.434l-40.629,-0.292l-61.506,-27.141Z" style="fill:#14cca8;fill-opacity:0.596078;stroke:#14cca8;stroke-width:6px;"/></g><path d="M-7.128,624.45l45.122,-40.249l21.778,-47.546l28.865,-2.427l24.847,40.94l12.463,44.432l-60.402,106.609l112.022,3.309l21.931,-27.42l21.885,9.045l6.989,20.848l68.779,2.506l6.044,-25.446l25.718,-3.515l18.262,-38.773l3.212,-24.979l32.802,-78.174l0.557,-18.708l-50.498,-50.982l-32.8,-36.033l-26.827,-10.495l-16.39,-30.501l-31.502,-11.223l-50.882,-44.406l-23.493,-24.803l-28.896,-7.766l-17.744,-20.943l-10.277,2.453l-10.888,-18.298l-11.379,3.17l-16.876,-3.742l19.59,15.774l-25.572,-3.608l-8.032,4.665l-17.62,-14.81l-5.57,23.977l10.653,18.007l0.862,11.363l14.857,6.21l3.465,-8.955l14.426,15.599l-2.072,34.69l6.976,27.336l-24.395,6.822l-30.569,25.191l-2.521,26.904l-19.135,44.673l2.235,99.279Z" style="fill:#ffca19;fill-opacity:0.603922;stroke:#ffca19;stroke-width:6px;"/><g id="lines"><path d="M880.097,135.965l15.867,-83.332l20.866,-49.711l-4.213,154.219l-32.52,-21.176Z" style="fill:none;stroke:#fff;stroke-width:3.15px;"/><path d="M33.668,-4.889l34.615,243.489l-6.067,31.62l54.375,14.668l55.043,-29.03l-33.227,-154.805l-25.138,-53.734l-6.427,-52.678l-73.174,0.47Z" style="fill:none;stroke:#fff;stroke-width:3.15px;"/><path d="M235.659,229.858l-4.049,-35.863l5.845,-24.162l25.187,-15.425l42.312,-6.964l21.889,15.841l23.059,7.071l19.147,-4.776l23.544,31.046l46.106,-3.092l16.594,11.704l26.203,6.919l14.763,25.703l-16.11,7.788l-24.856,-6.849l-54.297,3.163l-17.492,-6.024l-51.555,6.698l-17.197,-11.288l-79.093,-1.49Z" style="fill:none;stroke:#fff;stroke-width:3.15px;"/><path d="M363.537,304.947l2.002,-43.503l74.226,-4.714l33.901,8.464l20.002,1.963l20.442,18.737l-19.01,7.434l-30.38,-1.125l-18.323,-5.184l-25.338,6.339l-1.118,16.023l-25.799,5.772l-30.605,-10.206Z" style="fill:none;stroke:#fff;stroke-width:3.15px;"/><path d="M478.591,326.051l-2.492,-12.427l19.442,-14.178l44.466,-1.184l69.459,23.759l-24.239,6.626l-39.982,1.308l-15.832,-4.588l-11.899,11.302l-38.923,-10.618Z" style="fill:none;stroke:#fff;stroke-width:3.15px;"/><path d="M305.93,440.355l-8.619,-36.085l24.13,-15.262l21.398,-23.783l67.703,-12.183l72.285,4.44l21.663,40.683l0.049,12.838l12.252,11.694l-10.673,27.689l-59.783,14.816l-47.814,5.027l-35.374,6.069l-57.217,-35.943Z" style="fill:none;stroke:#fff;stroke-width:3.15px;"/><path d="M1296.28,279.517l-57.043,5.652l-46.84,-6.82l-33.892,-5.548l52.121,-82.937l10.954,-28.851l32.403,-28.413l45.384,-33.412l-3.087,180.329Z" style="fill:none;stroke:#fff;stroke-width:3.15px;"/><path d="M917.543,-4.539l-4.915,168.36l23.861,257.892l-0.294,57.112l13.507,32.472l8.391,142.063l-35.451,30.213l0.474,15.191l36.522,-3.965l-11.532,40.697l19.901,3.531l29.127,-28.092l31.948,32.358l59.995,1.208l38.727,-70.507l-19.4,-23.311l-23.694,-13.238l-15.555,32.423l-13.415,-40.853l-33.689,-260.64l-23.803,-161.606l-30.549,-144.194l-16.135,-64.309l-34.021,-2.805Z" style="fill:#0d0d0d;stroke:#fff;stroke-width:3.15px;"/><path d="M394.276,725.821l184.826,-79.165l113.538,-18.291l260.616,-47.584" style="fill:none;stroke:#fff;stroke-width:3.15px;"/><path d="M690.853,627.944l-30.26,-37.788l-85.827,-10.413l-41.522,17.802l-37.487,-19.181l-55.644,5.533l-68.975,38.285l-9.806,37.807l54.037,8.442l108.043,2.029l52.656,-22.588l114.785,-19.928Z" style="fill:none;stroke:#fff;stroke-width:3.15px;"/><path d="M65.688,232.6l-65.818,2.802" style="fill:none;stroke:#fff;stroke-width:3.15px;"/><path d="M165.6,227.037l68.385,-3.087" style="fill:none;stroke:#fff;stroke-width:3.15px;"/><path d="M1085.63,288.339l72.48,-14.877" style="fill:none;stroke:#fff;stroke-width:3.15px;stroke-linecap:square;"/><path d="M1155.54,648.943l56.635,-14.459l1.905,-52.668l-61.359,-3.326l-56.87,6.476l59.689,63.977Z" style="fill:none;stroke:#fff;stroke-width:3.15px;"/><path d="M493.699,232.581l81.676,3.279" style="fill:none;stroke:#fff;stroke-width:3.15px;"/><path d="M630.623,237.037l81.799,0.265" style="fill:none;stroke:#fff;stroke-width:3.15px;"/></g><path d="M576.093,244.131l3.526,-20.437l18.226,-13.197l28.553,13.547l4.638,24.119l-17.51,3.458l-37.433,-7.49Z" style="fill:#f400ff;fill-opacity:0.486275;stroke:#f400ff;stroke-width:6px;"/></g></g></svg>